<svg xmlns="http://www.w3.org/2000/svg" fill="none" viewBox="0 0 437 42" height="42" width="437">
<g clip-path="url(#clip0_35_7)">
<path fill="#141006" d="M40.536 41.947H1.41237C0.632752 41.947 0 41.3156 0 40.536V1.411C0 0.63138 0.632752 0 1.41237 0H40.536C41.3156 0 41.947 0.63138 41.947 1.411V40.5346C41.947 41.3142 41.3156 41.9456 40.536 41.9456"></path>
<path fill="#FFCE17" d="M16.0041 33.7995H29.4374C29.4662 33.7995 29.4937 33.7871 29.5129 33.7638L34.3992 27.8837C34.4527 27.8192 34.4074 27.7231 34.3237 27.7231H20.8547C20.8259 27.7231 20.7971 27.7369 20.7792 27.7588L15.93 33.6389C15.8764 33.7034 15.9231 33.7995 16.0055 33.7995"></path>
<path fill="#FFCE17" d="M18.1906 15.4716L8.0515 27.697C8.0364 27.7148 8.02954 27.7368 8.02954 27.7601V33.702C8.02954 33.7569 8.07346 33.8008 8.12837 33.8008L12.3174 33.7857C12.3463 33.7857 12.3737 33.7734 12.3929 33.75L27.5021 15.5978C27.5557 15.5333 27.5104 15.4373 27.4266 15.4373H18.2661C18.2373 15.4373 18.2085 15.4496 18.1906 15.4729"></path>
<path fill="#FFCE17" d="M13.0599 7.10844L8.16259 13.0009C8.10906 13.0654 8.15436 13.1615 8.23808 13.1615H29.4566C29.4854 13.1615 29.5142 13.1491 29.5321 13.1258L34.3992 7.26903C34.4527 7.20452 34.4074 7.10844 34.3237 7.10844L13.1354 7.07275C13.1066 7.07275 13.0777 7.08511 13.0599 7.10844Z"></path>
<path fill="black" d="M59.5652 39.862V1.91333H74.6167C77.4016 1.91333 79.7226 2.33333 81.5825 3.17472C83.4423 4.01473 84.8341 5.16494 85.7592 6.62672C86.6843 8.08713 87.1468 9.76715 87.1468 11.6695C87.1468 13.1642 86.8504 14.4668 86.2561 15.5786C85.6617 16.6904 84.8506 17.599 83.8239 18.3045C82.7972 19.0086 81.6291 19.5137 80.3211 19.8198V20.2014C81.7472 20.2522 83.0937 20.6557 84.3578 21.4106C85.6233 22.1655 86.65 23.2183 87.4392 24.5689C88.2284 25.9181 88.6237 27.5268 88.6237 29.3948C88.6237 31.3988 88.131 33.19 87.1468 34.7684C86.1627 36.3482 84.7064 37.5918 82.7793 38.5004C80.8523 39.4091 78.4544 39.8634 75.5844 39.8634H59.5638L59.5652 39.862ZM67.3325 17.857H73.4706C74.5742 17.857 75.5679 17.658 76.4504 17.2586C77.333 16.8592 78.0248 16.2909 78.5258 15.5525C79.0268 14.8141 79.2766 13.9356 79.2766 12.9172C79.2766 11.5419 78.7879 10.4205 77.812 9.5544C76.8361 8.68831 75.4389 8.25595 73.6216 8.25595H67.3311V17.8584L67.3325 17.857ZM67.3325 33.47H74.0567C76.3324 33.47 77.996 33.028 79.0487 32.1454C80.1015 31.2629 80.6272 30.0989 80.6272 28.6564C80.6272 27.5872 80.3678 26.6401 79.8503 25.8165C79.3328 24.993 78.5985 24.3479 77.6473 23.8812C76.6961 23.4146 75.5679 23.1812 74.2598 23.1812H67.3325V33.4713V33.47Z"></path>
<path fill="black" d="M93.1395 39.862V1.91333H100.908V33.4192H117.286V39.862H93.1395Z"></path>
<path fill="black" d="M129.882 1.91333H122.113V39.8634H129.882V1.91333Z"></path>
<path fill="black" d="M135.121 8.35615V1.91333H168.51L163.448 8.35615H154.529V39.862H146.735V8.35615H135.121Z"></path>
<path fill="black" d="M182.859 33.3889L178.271 39.8564H196.263L201.405 33.3889H182.859Z"></path>
<path fill="black" d="M186.548 10.9888L169.531 33.9943V39.7879L175.407 39.7701L196.554 10.9888H186.548Z"></path>
<path fill="black" d="M174.998 1.91333L169.74 8.39595H198.358L203.597 1.95725L174.998 1.91333Z"></path>
<path fill="black" d="M227.94 40.2463C225.437 40.2463 223.255 39.8304 221.393 38.9986C219.532 38.1669 218.07 37.0057 217.008 35.5151C215.946 34.0244 215.349 32.2909 215.217 30.3144H218.799C218.931 31.7803 219.413 33.0115 220.245 34.008C221.076 35.0045 222.163 35.7621 223.506 36.2809C224.848 36.7998 226.326 37.0592 227.94 37.0592C229.769 37.0592 231.387 36.7545 232.795 36.1451C234.203 35.5356 235.311 34.6833 236.118 33.588C236.925 32.4927 237.329 31.2203 237.329 29.7709C237.329 28.552 237.012 27.5267 236.378 26.695C235.744 25.8632 234.854 25.1591 233.709 24.5826C232.565 24.0061 231.218 23.4955 229.67 23.0508L225.322 21.7908C222.39 20.9343 220.133 19.7319 218.552 18.1837C216.971 16.6354 216.18 14.7001 216.18 12.3777C216.18 10.3848 216.712 8.63062 217.774 7.11531C218.836 5.6 220.282 4.41822 222.11 3.56998C223.938 2.72173 225.989 2.29761 228.262 2.29761C230.535 2.29761 232.631 2.72585 234.401 3.58233C236.172 4.43881 237.572 5.6 238.601 7.0659C239.631 8.5318 240.187 10.2036 240.269 12.0813H236.835C236.621 10.0389 235.723 8.42474 234.142 7.23884C232.561 6.05295 230.568 5.46 228.163 5.46C226.483 5.46 225 5.75235 223.716 6.33707C222.431 6.92178 221.426 7.72061 220.702 8.73356C219.977 9.74652 219.615 10.9118 219.615 12.2295C219.615 13.5472 219.973 14.556 220.689 15.4042C221.406 16.2525 222.324 16.9484 223.444 17.4919C224.564 18.0354 225.709 18.4801 226.878 18.826L230.732 19.9378C231.918 20.2672 233.104 20.6872 234.29 21.1978C235.476 21.7084 236.555 22.3467 237.526 23.1126C238.498 23.8784 239.281 24.809 239.874 25.9044C240.467 26.9997 240.763 28.305 240.763 29.8203C240.763 31.7968 240.252 33.5756 239.231 35.1568C238.21 36.738 236.74 37.9816 234.821 38.8874C232.902 39.7933 230.609 40.2463 227.94 40.2463Z"></path>
<path fill="black" d="M257.003 39.6288V23.7688L243.316 2.81934H247.393L255.224 14.8512C256.031 16.0865 256.768 17.2848 257.436 18.446C258.103 19.6072 258.79 20.9784 259.499 22.5596H258.09C258.799 20.9454 259.49 19.5536 260.166 18.3842C260.841 17.2148 261.566 16.0371 262.34 14.8512L270.147 2.81934H274.199L260.513 23.7688V39.6288H257.005H257.003Z"></path>
<path fill="black" d="M289.474 40.2463C286.97 40.2463 284.788 39.8304 282.927 38.9986C281.066 38.1669 279.604 37.0057 278.541 35.5151C277.479 34.0244 276.882 32.2909 276.75 30.3144H280.333C280.464 31.7803 280.946 33.0115 281.778 34.008C282.61 35.0045 283.697 35.7621 285.039 36.2809C286.382 36.7998 287.86 37.0592 289.474 37.0592C291.302 37.0592 292.921 36.7545 294.329 36.1451C295.737 35.5356 296.845 34.6833 297.652 33.588C298.459 32.4927 298.862 31.2203 298.862 29.7709C298.862 28.552 298.545 27.5267 297.911 26.695C297.277 25.8632 296.388 25.1591 295.243 24.5826C294.098 24.0061 292.752 23.4955 291.203 23.0508L286.855 21.7908C283.923 20.9343 281.667 19.7319 280.086 18.1837C278.504 16.6354 277.714 14.7001 277.714 12.3777C277.714 10.3848 278.245 8.63062 279.307 7.11531C280.37 5.6 281.815 4.41822 283.643 3.56998C285.472 2.72173 287.522 2.29761 289.795 2.29761C292.068 2.29761 294.164 2.72585 295.935 3.58233C297.705 4.43881 299.105 5.6 300.135 7.0659C301.164 8.5318 301.72 10.2036 301.802 12.0813H298.368C298.154 10.0389 297.256 8.42474 295.675 7.23884C294.094 6.05295 292.101 5.46 289.696 5.46C288.016 5.46 286.534 5.75235 285.249 6.33707C283.964 6.92178 282.96 7.72061 282.235 8.73356C281.51 9.74652 281.148 10.9118 281.148 12.2295C281.148 13.5472 281.506 14.556 282.223 15.4042C282.939 16.2525 283.857 16.9484 284.977 17.4919C286.097 18.0354 287.242 18.4801 288.412 18.826L292.266 19.9378C293.452 20.2672 294.638 20.6872 295.823 21.1978C297.009 21.7084 298.088 22.3467 299.06 23.1126C300.032 23.8784 300.814 24.809 301.407 25.9044C302 26.9997 302.296 28.305 302.296 29.8203C302.296 31.7968 301.786 33.5756 300.765 35.1568C299.744 36.738 298.273 37.9816 296.355 38.8874C294.436 39.7933 292.142 40.2463 289.474 40.2463Z"></path>
<path fill="black" d="M306.109 5.95555V2.81787H332.939V5.95555H321.304V39.6287H317.795V5.95555H306.109Z"></path>
<path fill="black" d="M339.463 39.6287V2.81787H360.956V5.95555H342.971V19.5426H359.819V22.6803H342.971V36.491H361.302V39.6287H339.463Z"></path>
<path fill="black" d="M368.565 39.6287V2.81787H373.556L383.834 28.0662C384.064 28.6097 384.307 29.248 384.563 29.9809C384.818 30.7139 385.09 31.4962 385.378 32.328C385.666 33.1598 385.942 33.9874 386.206 34.811C386.469 35.6345 386.716 36.4169 386.947 37.1581H386.057C386.288 36.4498 386.535 35.6922 386.798 34.8851C387.062 34.078 387.338 33.2545 387.626 32.4145C387.914 31.5745 388.19 30.7798 388.454 30.0303C388.717 29.2809 388.964 28.6262 389.195 28.0662L399.399 2.81787H404.389V39.6287H400.93V13.8615C400.93 12.9886 400.943 12.0786 400.967 11.1315C400.992 10.1844 401.013 9.23324 401.029 8.27793C401.046 7.32263 401.054 6.3838 401.054 5.46143H401.449C401.12 6.44968 400.778 7.45028 400.424 8.46323C400.07 9.47618 399.724 10.4603 399.386 11.4156C399.049 12.3709 398.723 13.2645 398.41 14.0962C398.097 14.928 397.817 15.6486 397.57 16.258L388.009 39.6287H384.921L375.285 16.258C375.038 15.6486 374.762 14.9404 374.458 14.1333C374.153 13.3262 373.832 12.4492 373.494 11.5021C373.157 10.555 372.811 9.57089 372.457 8.5497C372.102 7.52851 371.736 6.49909 371.357 5.46143H371.777C371.794 6.30144 371.81 7.19086 371.827 8.1297C371.843 9.06853 371.859 10.0197 371.876 10.9833C371.892 11.9468 371.905 12.8774 371.913 13.7751C371.921 14.6727 371.925 15.5004 371.925 16.258V39.6287H368.565Z"></path>
<path fill="black" d="M424.178 40.2463C421.674 40.2463 419.492 39.8304 417.63 38.9986C415.769 38.1669 414.307 37.0057 413.245 35.5151C412.183 34.0244 411.586 32.2909 411.454 30.3144H415.036C415.168 31.7803 415.65 33.0115 416.482 34.008C417.313 35.0045 418.4 35.7621 419.743 36.2809C421.085 36.7998 422.563 37.0592 424.178 37.0592C426.006 37.0592 427.624 36.7545 429.032 36.1451C430.441 35.5356 431.548 34.6833 432.355 33.588C433.162 32.4927 433.566 31.2203 433.566 29.7709C433.566 28.552 433.249 27.5267 432.615 26.695C431.981 25.8632 431.091 25.1591 429.946 24.5826C428.802 24.0061 427.455 23.4955 425.907 23.0508L421.559 21.7908C418.627 20.9343 416.37 19.7319 414.789 18.1837C413.208 16.6354 412.417 14.7001 412.417 12.3777C412.417 10.3848 412.949 8.63062 414.011 7.11531C415.073 5.6 416.519 4.41822 418.347 3.56998C420.175 2.72173 422.226 2.29761 424.499 2.29761C426.772 2.29761 428.868 2.72585 430.638 3.58233C432.409 4.43881 433.809 5.6 434.838 7.0659C435.868 8.5318 436.424 10.2036 436.506 12.0813H433.072C432.858 10.0389 431.96 8.42474 430.379 7.23884C428.798 6.05295 426.805 5.46 424.4 5.46C422.72 5.46 421.238 5.75235 419.953 6.33707C418.668 6.92178 417.663 7.72061 416.939 8.73356C416.214 9.74652 415.852 10.9118 415.852 12.2295C415.852 13.5472 416.21 14.556 416.926 15.4042C417.643 16.2525 418.561 16.9484 419.681 17.4919C420.801 18.0354 421.946 18.4801 423.115 18.826L426.969 19.9378C428.155 20.2672 429.341 20.6872 430.527 21.1978C431.713 21.7084 432.792 22.3467 433.764 23.1126C434.735 23.8784 435.518 24.809 436.111 25.9044C436.704 26.9997 437 28.305 437 29.8203C437 31.7968 436.489 33.5756 435.468 35.1568C434.447 36.738 432.977 37.9816 431.058 38.8874C429.139 39.7933 426.846 40.2463 424.178 40.2463Z"></path>
</g>
<defs>
<clipPath id="clip0_35_7">
<rect fill="white" height="41.947" width="437"></rect>
</clipPath>
</defs>
</svg>
